# File created by Blade
# Date/Time:  Wed Jan 21 18:34:34 2015
#---------------------------------------------------------
:version 1.10
:name HOM
:units
  mass 1.0
  length 1.000000
  angle deg
:documentation
     Acclaim Skeleton File
:root
   axis xyz
   order TX TY TZ RX RY RZ
   position 0.000000 0.000000 0.000000
   orientation 0 0 0
:bonedata
   begin
      id 1
      name RightUpLeg_dum
      direction -1.000000 0.000000 0.000000
      length 3.693983
      axis 0.0 0.0 0.0 xyz
   end
   begin
      id 2
      name LeftUpLeg_dum
      direction 1.000000 0.000000 0.000000
      length 3.693983
      axis 0.0 0.0 0.0 xyz
   end
   begin
      id 3
      name Spine_dum
      direction 0.000000 1.000000 0.000000
      length 2.392956
      axis 0.0 0.0 0.0 xyz
   end
   begin
      id 4
      name RightUpLeg
      direction 0.000000 -1.000000 0.000000
      length 15.795667
      axis 0.0 0.0 0.0 xyz
      dof rx ry rz
   end
   begin
      id 5
      name RightLeg
      direction 0.000000 -1.000000 0.000000
      length 14.766989
      axis 0.0 0.0 0.0 xyz
      dof rx ry rz
   end
   begin
      id 6
      name RightFoot
      direction 0.000000 -0.258819 0.965926
      length 4.962790
      axis 15.0 0.0 0.0 xyz
      dof rx ry rz
   end
   begin
      id 7
      name RightToeBase
      direction 0.000000 0.000000 1.000000
      length 2.952750
      axis 0.0 0.0 0.0 xyz
      dof rx ry rz
   end
   begin
      id 8
      name LeftUpLeg
      direction 0.000000 -1.000000 0.000000
      length 15.795667
      axis 0.0 0.0 0.0 xyz
      dof rx ry rz
   end
   begin
      id 9
      name LeftLeg
      direction 0.000000 -1.000000 0.000000
      length 14.766989
      axis 0.0 0.0 0.0 xyz
      dof rx ry rz
   end
   begin
      id 10
      name LeftFoot
      direction 0.000000 -0.258819 0.965926
      length 4.962790
      axis 15.0 0.0 0.0 xyz
      dof rx ry rz
   end
   begin
      id 11
      name LeftToeBase
      direction 0.000000 0.000000 1.000000
      length 2.952750
      axis 0.0 0.0 0.0 xyz
      dof rx ry rz
   end
   begin
      id 12
      name Spine
      direction 0.000000 1.000000 0.000000
      length 0.000000
      axis 0.0 0.0 0.0 xyz
      dof rx ry rz
   end
   begin
      id 13
      name Spine_dum1
      direction 0.000000 1.000000 0.000000
      length 13.207411
      axis 0.0 0.0 0.0 xyz
   end
   begin
      id 14
      name Spine_dum2
      direction 0.000000 1.000000 0.000000
      length 13.207411
      axis 0.0 0.0 0.0 xyz
   end
   begin
      id 15
      name Spine_dum3
      direction 0.000000 1.000000 0.000000
      length 19.250100
      axis 0.0 0.0 0.0 xyz
   end
   begin
      id 16
      name RightShoulder
      direction -1.000000 0.000000 0.000000
      length 8.140465
      axis 0.0 0.0 90.0 xyz
      dof rx ry rz
   end
   begin
      id 17
      name RightArm
      direction -1.000000 0.000000 0.000000
      length 10.649840
      axis 0.0 0.0 90.0 xyz
      dof rx ry rz
   end
   begin
      id 18
      name RightForeArm
      direction -1.000000 0.000000 0.000000
      length 8.304624
      axis 0.0 0.0 90.0 xyz
      dof ry rz rx
   end
   begin
      id 19
      name RightHand
      direction -1.000000 0.000000 0.000000
      length 0.000000
      axis 0.0 0.0 90.0 xyz
      dof rx ry rz
   end
   begin
      id 20
      name RightHand_dum1
      direction -1.000000 0.000000 0.000000
      length 3.937000
      axis 0.0 0.0 90.0 xyz
   end
   begin
      id 21
      name RightHand_dum2
      direction 0.000000 0.000000 0.000000
      length 0.000000
      axis 0.0 0.0 90.0 xyz
   end
   begin
      id 22
      name RightHandThumb1
      direction 0.000000 0.000000 1.000000
      length 3.937000
      axis 0.0 0.0 90.0 xyz
      dof rx rz ry
   end
   begin
      id 23
      name LeftShoulder
      direction 1.000000 0.000000 0.000000
      length 8.140465
      axis 0.0 0.0 -90.0 xyz
      dof rx ry rz
   end
   begin
      id 24
      name LeftArm
      direction 1.000000 0.000000 0.000000
      length 10.649840
      axis 0.0 0.0 -90.0 xyz
      dof rx ry rz
   end
   begin
      id 25
      name LeftForeArm
      direction 1.000000 0.000000 0.000000
      length 8.304624
      axis 0.0 0.0 -90.0 xyz
      dof ry rz rx
   end
   begin
      id 26
      name LeftHand
      direction 1.000000 0.000000 0.000000
      length 0.000000
      axis 0.0 0.0 -90.0 xyz
      dof rx ry rz
   end
   begin
      id 27
      name LeftHand_dum1
      direction 1.000000 0.000000 0.000000
      length 3.937000
      axis 0.0 0.0 -90.0 xyz
   end
   begin
      id 28
      name LeftHand_dum2
      direction 0.000000 0.000000 0.000000
      length 0.000000
      axis 0.0 0.0 -90.0 xyz
   end
   begin
      id 29
      name LeftHandThumb1
      direction 0.000000 0.000000 1.000000
      length 3.937000
      axis 0.0 0.0 -90.0 xyz
      dof rx rz ry
   end
   begin
      id 30
      name Head
      direction 0.000000 1.000000 0.000000
      length 4.527550
      axis 0.0 0.0 0.0 xyz
      dof rx ry rz
   end
:hierarchy
   begin
      root RightUpLeg_dum LeftUpLeg_dum Spine_dum
      RightUpLeg_dum RightUpLeg
      LeftUpLeg_dum LeftUpLeg
      Spine_dum Spine
      RightUpLeg RightLeg
      RightLeg RightFoot
      RightFoot RightToeBase
      LeftUpLeg LeftLeg
      LeftLeg LeftFoot
      LeftFoot LeftToeBase
      Spine Spine_dum1 Spine_dum2 Spine_dum3
      Spine_dum1 RightShoulder
      Spine_dum2 LeftShoulder
      Spine_dum3 Head
      RightShoulder RightArm
      RightArm RightForeArm
      RightForeArm RightHand
      RightHand RightHand_dum1 RightHand_dum2
      RightHand_dum2 RightHandThumb1
      LeftShoulder LeftArm
      LeftArm LeftForeArm
      LeftForeArm LeftHand
      LeftHand LeftHand_dum1 LeftHand_dum2
      LeftHand_dum2 LeftHandThumb1
   end

# File created by Blade
# Date/Time:  Wed Jan 21 18:34:41 2015
# Frame Rate: 120.000 fps
#------------------------------------------------------
:FULLY-SPECIFIED
:DEGREES
605
root 3.450830 32.778189 -7.033266 46.589201 35.685709 5.181140
RightUpLeg -38.326572 -28.233647 15.908725
RightLeg 2.070791 -0.000000 -0.000000
RightFoot -19.158876 -15.939605 32.038327
RightToeBase 8.300174 -0.000000 -0.000000
LeftUpLeg -48.614408 -9.782114 11.814914
LeftLeg 5.545796 -0.000000 -0.000000
LeftFoot -0.228621 -27.159110 -12.389210
LeftToeBase 10.947049 -0.000000 -0.000000
Spine -47.069120 6.954704 -8.893481
RightShoulder -13.444490 19.595677 -46.112079
RightArm 1.540933 -15.565615 44.776261
RightForeArm 7.466103 0.000000 -5.389084
RightHand 11.597882 -0.000000 4.691021
RightHandThumb1 -24.326973 -0.000000 -32.862282
LeftShoulder -12.226114 1.830031 37.867909
LeftArm 24.027548 -10.407567 -37.183902
LeftForeArm 20.309374 0.000000 -2.276460
LeftHand -23.347702 0.000000 -6.537307
LeftHandThumb1 -26.253704 0.000000 33.147579
Head 0.991737 1.289694 -2.111393
606
root 3.451812 32.774874 -7.008525 46.692429 36.226298 5.324546
RightUpLeg -38.252509 -28.426752 16.044226
RightLeg 2.042144 -0.000000 -0.000000
RightFoot -19.343702 -16.142040 32.074287
RightToeBase 8.297469 -0.000000 -0.000000
LeftUpLeg -48.721911 -10.035148 12.005251
LeftLeg 5.530124 -0.000000 -0.000000
LeftFoot -0.057508 -27.407646 -12.433134
LeftToeBase 10.986915 -0.000000 -0.000000
Spine -47.119929 7.290513 -9.426485
RightShoulder -13.365378 19.778101 -46.082034
RightArm 1.540493 -15.786786 44.822735
RightForeArm 7.521622 -0.000000 -5.378499
RightHand 11.702962 -0.000000 4.764520
RightHandThumb1 -24.326973 -0.000000 -32.862282
LeftShoulder -12.380595 1.887271 37.939476
LeftArm 23.703457 -10.572531 -37.281060
LeftForeArm 20.243370 -0.000000 -2.346305
LeftHand -23.297012 -0.000000 -6.546627
LeftHandThumb1 -26.253704 0.000000 33.147579
Head 1.013696 1.532116 -1.984584
607
root 3.452403 32.771301 -6.980961 46.798008 36.791886 5.466075
RightUpLeg -38.165063 -28.615675 16.194398
RightLeg 2.000740 -0.000000 -0.000000
RightFoot -19.555233 -16.410748 32.171679
RightToeBase 8.346684 -0.000000 -0.000000
LeftUpLeg -48.834857 -10.297882 12.219857
LeftLeg 5.518091 -0.000000 -0.000000
LeftFoot 0.102405 -27.670581 -12.499302
LeftToeBase 11.036277 -0.000000 -0.000000
Spine -47.167833 7.614011 -9.951202
RightShoulder -13.285129 19.866024 -46.026778
RightArm 1.572033 -15.828027 44.856093
RightForeArm 7.459639 -0.000000 -5.295528
RightHand 11.499967 -0.000000 4.654012
RightHandThumb1 -24.326973 -0.000000 -32.862282
LeftShoulder -12.506834 1.983473 38.002539
LeftArm 23.355380 -10.796451 -37.356784
LeftForeArm 20.180964 -0.000000 -2.393630
LeftHand -23.301368 0.000000 -6.590501
LeftHandThumb1 -26.253704 0.000000 33.147579
Head 0.972213 1.741468 -1.822339
608
root 3.453612 32.767153 -6.954501 46.946148 37.348650 5.612951
RightUpLeg -38.135858 -28.825597 16.382659
RightLeg 1.962167 -0.000000 -0.000000
RightFoot -19.736019 -16.605893 32.242060
RightToeBase 8.386541 -0.000000 -0.000000
LeftUpLeg -48.985752 -10.543711 12.427248
LeftLeg 5.502370 -0.000000 -0.000000
LeftFoot 0.283829 -27.918299 -12.619419
LeftToeBase 11.166438 -0.000000 -0.000000
Spine -47.243582 7.924982 -10.482602
RightShoulder -13.226054 19.912110 -45.984767
RightArm 1.676473 -15.881366 44.887250
RightForeArm 7.510457 -0.000000 -5.331221
RightHand 11.138119 -0.000000 5.133895
RightHandThumb1 -24.326973 -0.000000 -32.862282
LeftShoulder -12.632394 1.967428 38.126587
LeftArm 22.837983 -10.690142 -37.345594
LeftForeArm 20.099295 -0.000000 -2.418071
LeftHand -23.260811 0.000000 -6.538616
LeftHandThumb1 -26.253704 0.000000 33.147579
Head 0.933232 2.062106 -1.665175
609
root 3.453758 32.762958 -6.928682 47.083856 37.958655 5.772969
RightUpLeg -38.053360 -29.028703 16.543172
RightLeg 1.900076 -0.000000 -0.000000
RightFoot -19.926469 -16.849188 32.306179
RightToeBase 8.411171 -0.000000 -0.000000
LeftUpLeg -49.138917 -10.828678 12.667876
LeftLeg 5.499290 -0.000000 -0.000000
LeftFoot 0.467524 -28.198652 -12.713787
LeftToeBase 11.206561 -0.000000 -0.000000
Spine -47.312877 8.191309 -10.955007
RightShoulder -13.063667 20.011445 -45.911621
RightArm 1.730656 -15.754043 44.890696
RightForeArm 7.427572 0.000000 -5.381086
RightHand 11.585079 0.000000 5.200304
RightHandThumb1 -24.326973 -0.000000 -32.862282
LeftShoulder -12.765864 1.933916 38.209388
LeftArm 22.352128 -10.570091 -37.279694
LeftForeArm 19.920422 0.000000 -2.441056
LeftHand -23.548581 -0.000000 -6.785448
LeftHandThumb1 -26.253704 0.000000 33.147579
Head 0.964722 2.367553 -1.537765
